<svg width="101" height="88" viewBox="0 0 101 88" fill="none" xmlns="http://www.w3.org/2000/svg">
<g clip-path="url(#clip0_186_9)">
<path d="M98.2602 46.4183C98.2747 56.1975 94.3093 65.6659 87.0661 73.1469C85.9218 74.3268 84.7051 75.4521 83.4212 76.5179H17.6749C16.4262 75.5721 15.2456 74.5604 14.1399 73.4884C14.0417 73.3928 13.9357 73.2835 13.8139 73.1469C11.0645 70.3019 2.16822 60.2163 2.62776 46.4183C3.26798 27.3025 21.7519 4.8396 50.4479 4.8396C56.727 4.8396 62.9446 5.91509 68.7458 8.00465C74.5469 10.0942 79.8178 13.1569 84.2577 17.0179C88.6975 20.8789 92.2192 25.4625 94.6218 30.5071C97.0243 35.5516 98.2607 40.9582 98.2602 46.4183Z" fill="white"/>
<path d="M87.0661 73.1469C85.9229 74.3265 84.706 75.4507 83.4212 76.5144C74.5339 83.8913 62.7145 87.9999 50.4282 87.9832C34.8823 87.9832 23.2405 80.811 17.671 76.5144C16.4268 75.5668 15.2478 74.5563 14.1399 73.4884C14.0457 73.3894 13.9318 73.2835 13.8218 73.1469C19.1517 68.4712 26.3316 64.8407 34.5955 62.7847C36.9129 67.7916 43.1344 71.3777 50.4322 71.3777C57.2193 71.3777 63.0677 68.2834 65.711 63.8332C65.9192 63.4916 66.1038 63.1501 66.2688 62.7847C66.4259 62.8222 66.5201 62.8427 66.7205 62.8974C74.8077 64.9739 81.8304 68.56 87.0661 73.1469Z" fill="#AA392D"/>
<path d="M66.2728 62.7813C66.1079 63.1228 65.9233 63.4849 65.7151 63.8298C63.0717 68.2698 57.2233 71.3744 50.4362 71.3744C43.1385 71.3744 36.917 67.7882 34.5996 62.7813L35.6444 62.5286L35.7308 62.5081C35.7308 62.5081 36.4299 62.3476 37.0741 62.2212C38.2916 64.4027 40.1906 66.2421 42.554 67.5291C44.9174 68.8161 47.6496 69.4986 50.4382 69.4986C53.2267 69.4986 55.959 68.8161 58.3224 67.5291C60.6857 66.2421 62.5848 64.4027 63.8023 62.2212C64.648 62.3239 65.4771 62.5118 66.2728 62.7813Z" fill="#7C211A"/>
<path d="M63.8021 62.2178C62.5825 64.3947 60.6837 66.2297 58.3225 67.5133C55.9612 68.797 53.2325 69.4777 50.4478 69.4777C47.663 69.4777 44.9344 68.797 42.5731 67.5133C40.2119 66.2297 38.3131 64.3947 37.0935 62.2178C37.6237 62.1017 38.154 62.0061 38.6921 61.907L39.0849 61.8387C39.1505 61.822 39.2175 61.8095 39.2852 61.8012C39.3991 61.7772 39.513 61.7636 39.623 61.7397L40.0943 61.6714L40.4517 61.6099H40.4871C40.6245 61.3162 40.7542 60.9985 40.8798 60.6502C40.923 60.5375 40.9702 60.4077 41.0134 60.2881C41.1666 59.7895 41.2805 59.3182 41.359 58.9015C42.1963 59.504 43.1032 60.0294 44.0652 60.4692C44.1367 60.4988 44.2062 60.5319 44.2734 60.5682C44.352 60.5989 44.4384 60.6365 44.5169 60.6741L44.8154 60.7936C44.8743 60.8175 44.9372 60.838 44.9882 60.8619L45.1375 60.9234L45.3182 60.9917L45.491 61.0532C45.516 61.0647 45.5423 61.0739 45.5695 61.0805C45.6386 61.107 45.7094 61.1298 45.7816 61.1488C45.8563 61.1796 45.9466 61.2103 46.0409 61.241C46.1391 61.2718 46.2255 61.3025 46.3276 61.3298C46.3481 61.3366 46.3691 61.3423 46.3904 61.3469L46.5908 61.4084C46.6968 61.4289 46.7911 61.4596 46.8932 61.4835C46.9953 61.5074 46.9835 61.504 47.0346 61.5143L47.3135 61.5826C47.898 61.7052 48.491 61.7954 49.0888 61.8524C49.1477 61.8524 49.2106 61.8524 49.2695 61.8695H49.3991H49.6426H49.8626H50.1139H50.33C51.6273 61.8662 52.9155 61.6794 54.1438 61.3162C54.1475 61.3177 54.1515 61.3185 54.1556 61.3185C54.1596 61.3185 54.1637 61.3177 54.1674 61.3162C54.2159 61.3082 54.2634 61.2956 54.3088 61.2786C54.623 61.1864 54.8979 61.0873 55.1414 61.0054L55.4753 60.8858L55.5617 60.8551C56.9666 60.3324 58.2723 59.6276 59.4344 58.7649C59.5562 59.2362 59.7015 59.7349 59.8861 60.2574C60.0511 60.7253 60.2239 61.1659 60.3967 61.5792C60.546 61.6031 60.6874 61.6201 60.8327 61.6475L61.2608 61.7158L61.685 61.7841L61.9992 61.8387C62.0699 61.8387 62.1406 61.8695 62.2074 61.8763C62.7494 62.0095 63.2797 62.1051 63.8021 62.2178Z" fill="#E59973"/>
<path d="M31.4219 34.9664C31.0651 36.6841 30.9333 38.4314 31.0291 40.1749C31.0291 40.5164 31.0723 40.8784 31.1195 41.2234C31.1195 41.3532 31.143 41.4898 31.1627 41.6196C30.3339 41.2405 29.9844 39.5704 29.3441 36.4043C28.9514 34.4097 28.7353 33.409 28.7943 32.3059C28.9459 30.6139 29.4911 28.9662 30.3968 27.4629C30.7934 28.724 31.6509 29.8388 32.8398 30.6392C32.2094 32.0389 31.7346 33.488 31.4219 34.9664Z" fill="#480101"/>
<path d="M71.5085 36.4045C71.1982 37.9482 70.9547 39.1368 70.6915 39.9838C70.4127 40.9059 70.1102 41.4455 69.6664 41.6266C69.7332 41.0801 69.7882 40.5439 69.8117 40.0008C69.9049 38.3162 69.7824 36.6277 69.4464 34.9666C69.2101 33.8265 68.8726 32.7041 68.437 31.6093C68.437 31.6093 68.437 31.5854 68.437 31.5786C69.497 30.965 70.5148 30.2978 71.4849 29.5806C71.7997 30.4691 71.9987 31.3856 72.078 32.3129C72.1291 33.416 71.917 34.4167 71.5085 36.4045Z" fill="#480101"/>
<path opacity="0.2" d="M66.7244 62.9009C66.4024 63.2424 66.0646 63.5362 65.715 63.8367C64.9504 64.5114 64.1271 65.1337 63.2523 65.6981C62.1049 66.4451 60.8539 67.0636 59.5288 67.539C58.6913 67.8328 57.8232 68.0558 56.9365 68.205C56.153 68.3319 55.3572 68.3925 54.5603 68.386C52.9987 68.3553 51.4569 68.0751 50.0119 67.5595C49.9246 67.5324 49.8393 67.5004 49.7566 67.4638C48.6031 67.0358 47.5094 66.495 46.4966 65.8518C44.5943 64.6188 42.919 63.1413 41.528 61.4699C41.3002 61.2069 41.0842 60.9405 40.8643 60.6604C40.9075 60.5477 40.9546 60.4179 40.9978 60.2984C41.151 59.7998 41.2649 59.3284 41.3434 58.9118C41.5712 59.0711 41.8069 59.2283 42.0504 59.3831C42.6892 59.7853 43.357 60.1515 44.0496 60.4794C44.1211 60.5091 44.1906 60.5421 44.2578 60.5785C44.3364 60.6092 44.4228 60.6468 44.5013 60.6843L44.7998 60.8039C44.8588 60.8278 44.9216 60.8483 44.9727 60.8722L45.1219 60.9337L45.3026 61.002L45.4754 61.0634C45.5004 61.075 45.5267 61.0841 45.554 61.0908L45.7661 61.1591L46.0253 61.2513L46.312 61.3401C46.3326 61.3468 46.3535 61.3526 46.3749 61.3572L46.5752 61.4186C46.6812 61.4391 46.7755 61.4699 46.8776 61.4938C46.9797 61.5177 46.968 61.5143 47.019 61.5245L47.2979 61.5928C47.8812 61.7205 48.4746 61.8107 49.0732 61.8626C49.1321 61.8626 49.195 61.8626 49.2539 61.8797H49.3835H49.627H49.847H50.0984H50.3144C51.611 61.8689 52.8978 61.6823 54.1282 61.3264C54.1319 61.3279 54.1359 61.3287 54.14 61.3287C54.1441 61.3287 54.1481 61.3279 54.1518 61.3264C54.2004 61.3185 54.2478 61.3059 54.2932 61.2889C54.5524 61.2137 54.8077 61.1283 55.0591 61.0395L55.1376 61.0156L55.4597 60.8961L55.5461 60.8653C56.6885 60.409 57.7732 59.8504 58.7826 59.1987C58.9986 59.0655 59.2068 58.9186 59.4189 58.7751C59.5406 59.2465 59.6859 59.7451 59.8705 60.2677C60.0355 60.7356 60.2083 61.1762 60.3812 61.5894C60.5304 61.6133 60.6718 61.6304 60.8171 61.6577L61.2453 61.726L61.6694 61.7943L61.9837 61.849C62.0544 61.849 62.1251 61.8797 62.1918 61.8865C62.7339 61.9856 63.2641 62.0812 63.7865 62.1973C64.6192 62.3613 65.4479 62.5389 66.257 62.7575L66.7244 62.9009Z" fill="black"/>
<path d="M73.2209 43.7064C73.1581 45.4755 71.858 47.2686 70.4008 47.9278C70.2055 48.0174 69.9984 48.0862 69.7842 48.1327C69.7685 48.1342 69.7527 48.1342 69.737 48.1327C69.4797 48.1869 69.2121 48.1939 68.9515 48.1532C68.6674 48.1046 68.3991 48.002 68.166 47.8526L68.056 47.7843C67.895 47.6712 67.7476 47.5442 67.6161 47.4052C66.5674 46.3055 66.1392 44.2426 66.8305 42.5964C67.1145 41.9576 67.5463 41.3764 68.0992 40.8887C68.5671 40.4538 69.1702 40.1465 69.8352 40.0041C70.141 39.9495 70.4564 39.9495 70.7622 40.0041C72.4747 40.2944 73.272 42.2241 73.2209 43.7064Z" fill="#E59973"/>
<path opacity="0.3" d="M73.217 43.7064C73.1581 45.4755 71.858 47.2686 70.4008 47.9278C70.2055 48.0174 69.9984 48.0862 69.7842 48.1327C69.7685 48.1342 69.7527 48.1342 69.737 48.1327C69.4797 48.1869 69.2121 48.1939 68.9515 48.1532C68.6674 48.1046 68.3991 48.002 68.166 47.8526L68.056 47.7843C67.895 47.6712 67.7476 47.5442 67.6161 47.4052C66.5674 46.3055 66.1392 44.2426 66.8305 42.5964C67.1145 41.9576 67.5463 41.3764 68.0992 40.8887C68.5671 40.4538 69.1702 40.1465 69.8352 40.0041C70.141 39.9495 70.4564 39.9495 70.7622 40.0041C72.4747 40.2944 73.272 42.2241 73.217 43.7064Z" fill="black"/>
<path d="M33.272 47.4155C33.1116 47.5856 32.9268 47.7372 32.7221 47.8664C32.4879 48.0134 32.2199 48.1148 31.9365 48.1635C31.6759 48.2042 31.4084 48.1972 31.151 48.143H31.1039C30.8894 48.097 30.6823 48.0281 30.4872 47.9381C29.03 47.2789 27.7378 45.4859 27.6671 43.7167C27.616 42.2344 28.4134 40.3013 30.1416 40.0042C31.1274 39.8334 32.0662 40.2467 32.8085 40.8922C33.3614 41.3799 33.7932 41.9611 34.0772 42.5999C34.7488 44.2529 34.3207 46.3158 33.272 47.4155Z" fill="#E59973"/>
<path d="M69.8116 40.0178C69.788 40.5609 69.733 41.0971 69.6662 41.6436C69.3952 43.7409 68.8455 45.8039 68.0284 47.7912C66.202 52.2551 63.1305 56.2135 59.4345 58.7989C59.2224 58.9424 59.0142 59.0892 58.7982 59.2224C57.7888 59.8742 56.7042 60.4328 55.5618 60.8891L55.4753 60.9199L55.1533 61.0394L55.0747 61.0633C54.8233 61.1521 54.568 61.2375 54.3088 61.3126C54.2634 61.3297 54.216 61.3423 54.1674 61.3502C54.1637 61.3517 54.1597 61.3525 54.1556 61.3525C54.1516 61.3525 54.1475 61.3517 54.1438 61.3502C52.9134 61.706 51.6266 61.8927 50.33 61.9035H50.114H49.8626H49.6427H49.3991H49.2695C49.2106 61.9035 49.1478 61.9035 49.0889 61.8864C48.4903 61.8345 47.8969 61.7443 47.3135 61.6166L47.0346 61.5483C46.9836 61.5483 46.9404 61.5244 46.8932 61.5176C46.8461 61.5107 46.6969 61.4629 46.5908 61.4424L46.3905 61.3809C46.3692 61.3763 46.3482 61.3706 46.3277 61.3639L46.0409 61.2751L45.7817 61.1829L45.5696 61.1145C45.5424 61.1079 45.516 61.0988 45.4911 61.0872L45.3182 61.0257L45.1376 60.9574L44.9883 60.896C44.9372 60.8721 44.8744 60.8516 44.8155 60.8277L44.517 60.7081C44.4384 60.6705 44.352 60.633 44.2735 60.6022C44.2062 60.5659 44.1367 60.5328 44.0653 60.5032C43.3726 60.1753 42.7049 59.8091 42.0661 59.4069C41.8226 59.252 41.5869 59.0949 41.3591 58.9355C40.1227 58.0736 38.9944 57.1005 37.993 56.0325C35.6252 53.4943 33.8121 50.6004 32.6434 47.4941C31.9154 45.5993 31.4281 43.6408 31.1902 41.6538C31.1705 41.524 31.1548 41.3874 31.147 41.2576C31.0999 40.9161 31.0763 40.5745 31.0566 40.2091C30.9608 38.4656 31.0926 36.7183 31.4494 35.0007C31.7646 33.522 32.242 32.0729 32.8752 30.6734C33.1383 30.0757 33.4329 29.478 33.755 28.8906C35.3145 25.9466 37.5931 23.3336 40.4321 21.2333C40.5539 21.1411 40.6757 21.0592 40.7974 20.9772C43.5144 19.0621 46.8919 17.9954 50.3889 17.9478C54.2145 17.9478 57.6081 19.2114 60.4439 21.2265C61.9591 22.3096 63.3082 23.5573 64.4581 24.939C65.8239 26.5752 66.9592 28.3479 67.8398 30.2192C68.048 30.6905 68.2601 31.1447 68.4408 31.6126C68.4408 31.6126 68.4408 31.6365 68.4408 31.6434C68.8764 32.7381 69.2138 33.8606 69.4502 35.0007C69.7834 36.6563 69.9046 38.339 69.8116 40.0178Z" fill="#E59973"/>
<path opacity="0.2" d="M72.0582 32.306C71.6482 32.6821 71.2 33.025 70.7188 33.3307C70.6835 33.3614 70.4989 33.4673 70.2671 33.6107C69.8744 33.8293 69.4816 34.0513 69.0888 34.2631C67.4242 35.1405 65.6638 35.8726 63.8335 36.4489C59.8832 37.6841 55.6794 38.187 51.4923 37.9252C47.3052 37.6635 43.2273 36.6429 39.5209 34.929C38.645 34.5124 37.7927 34.0581 36.9718 33.5629C36.6929 33.3955 36.4258 33.2214 36.1548 33.0574C35.4355 32.6024 34.7446 32.1145 34.0849 31.5956C33.7707 31.3532 33.4564 31.1038 33.1619 30.8477C34.2218 31.5384 35.3762 32.112 36.5986 32.5554C39.132 33.5253 42.1485 34.2631 45.0825 34.9461C47.6177 35.5973 50.2437 35.942 52.8869 35.9707C55.5505 35.9836 58.2004 35.638 60.7424 34.9461C61.8988 34.6214 63.022 34.2136 64.1006 33.7268C64.6151 33.5083 65.1297 33.2658 65.6717 33.0164C66.6968 32.5315 67.5924 32.0636 68.4211 31.5717C69.4644 30.9647 70.4663 30.3056 71.4219 29.5977C71.7623 30.474 71.976 31.3838 72.0582 32.306Z" fill="black"/>
<path d="M78.217 22.2033C78.1934 24.1125 76.1314 25.8509 75.5304 26.3427C73.9908 27.6133 72.7182 28.6584 71.4652 29.5805L71.4299 29.6044C70.4743 30.3123 69.4724 30.9715 68.4291 31.5785C67.5925 32.0703 66.697 32.5382 65.6797 33.0232C65.1494 33.2725 64.6349 33.515 64.1086 33.7336C63.03 34.2203 61.9067 34.6282 60.7504 34.9529C58.2084 35.6448 55.5585 35.9904 52.8949 35.9775C50.2517 35.9488 47.6256 35.604 45.0905 34.9529C42.1565 34.2391 39.14 33.515 36.6066 32.5621C35.3842 32.1188 34.2298 31.5452 33.1699 30.8544C33.0638 30.7759 32.9617 30.711 32.8556 30.6324C31.6667 29.8321 30.8093 28.7173 30.4126 27.4562C29.4778 24.2321 32.184 21.0319 32.6003 20.5503C33.8798 19.127 35.5658 18.0201 37.4904 17.3398C41.151 15.9942 42.8478 17.0461 50.8093 17.3398C57.8792 17.6062 61.4142 17.7429 64.7645 16.6055C66.1157 16.1445 68.6373 15.1301 69.085 15.6766C69.4425 16.1137 68.4055 17.415 68.162 17.7258C67.2508 18.8665 66.4849 19.1773 66.5909 19.4335C66.7912 19.8706 69.0025 19.6589 70.8447 19.191C72.8085 18.6923 73.543 18.1015 73.8886 18.3884C74.36 18.7743 73.6569 20.4376 72.4707 21.5305C71.6184 22.3229 70.8289 22.5551 70.8996 22.8215C71.0135 23.187 72.5336 23.3133 73.9436 23.0025C76.1707 22.521 77.3018 21.1036 77.9303 21.4622C78.1031 21.5544 78.2249 21.7525 78.217 22.2033Z" fill="#480101"/>
</g>
<defs>
<clipPath id="clip0_186_9">
<rect width="100.55" height="87.4333" fill="white"/>
</clipPath>
</defs>
</svg>
