<svg width="1743" height="1118" viewBox="0 0 1743 1118" fill="none" xmlns="http://www.w3.org/2000/svg">
<g clip-path="url(#clip0_4_3)">
<rect width="1743" height="1117.89" fill="white"/>
<path d="M716.998 604.874C675.983 676.215 700.568 767.297 771.909 808.311L1317.54 1122H1743V0H1064.74L716.998 604.874Z" fill="url(#paint0_linear_4_3)"/>
<path d="M716.998 604.874C675.983 676.215 700.568 767.297 771.909 808.311L1317.54 1122H1743V0H1064.74L716.998 604.874Z" fill="url(#paint1_linear_4_3)"/>
<g clip-path="url(#clip1_4_3)">
<path fill-rule="evenodd" clip-rule="evenodd" d="M1428.06 289.447C1437.53 292.891 1442.98 291.218 1448.07 289.447C1443.43 288.266 1438.6 289.84 1435.03 287.085C1440.75 287.478 1445.57 284.821 1450.04 282.952C1448.34 282.558 1445.75 282.952 1443.69 281.672C1450.93 281.082 1454.42 275.177 1458.79 273.799C1453.34 269.272 1448.7 271.929 1442.71 262.482C1438.87 263.368 1436.1 263.368 1433.87 262.482C1436.55 262.187 1438.96 261.99 1440.48 260.415C1435.92 260.612 1431.28 259.136 1426.54 260.415C1430.29 257.266 1435.83 258.25 1439.14 255.593C1422.88 236.993 1402.06 218.787 1377.4 211.111C1364.8 207.174 1344.97 207.568 1334.61 209.044C1330.68 214.949 1332.37 222.428 1335.86 229.219C1328.8 222.428 1330.14 217.016 1330.32 211.209C1327.99 216.327 1326.92 222.428 1328.98 228.628C1320.76 226.857 1313.52 231.974 1306.55 239.946C1289.49 259.431 1291.19 279.015 1279.57 295.253C1297.17 299.78 1322.54 287.675 1331.3 287.577C1317.01 291.317 1299.94 302.437 1282.16 298.501C1280.82 304.996 1277.69 312.475 1276.35 318.97C1282.07 320.053 1289.31 324.186 1295.3 324.875C1315.75 327.237 1319.33 308.145 1335.41 301.158C1343.9 297.516 1352.65 299.977 1357.21 316.51C1358.46 320.938 1358.01 326.154 1357.84 330.78C1361.23 329.697 1363.11 320.25 1376.24 313.656C1380.35 311.589 1384.28 310.605 1388.03 306.57C1387.23 302.339 1392.86 298.304 1390.62 294.663C1383.92 290.332 1371.68 288.955 1360.78 287.774C1373.02 287.38 1383.83 288.659 1391.88 292.596C1393.22 283.345 1395.09 272.914 1391.7 262.482C1381.24 250.377 1365.7 245.653 1350.51 240.438C1366.68 244.374 1380.08 248.704 1393.66 257.266C1395.36 259.628 1398.04 264.155 1399.2 267.402C1407.51 271.634 1416.8 279.212 1428.06 289.447" fill="white"/>
<path fill-rule="evenodd" clip-rule="evenodd" d="M1395.99 268.583C1406.89 273.504 1417.52 280.983 1425.56 289.152C1425.11 302.831 1423.15 315.624 1418.95 327.729C1417.34 332.453 1414.12 336.192 1412.16 340.719C1411.53 342.294 1411.26 344.065 1411.26 345.837C1411.26 352.922 1411.89 360.008 1412.07 367.094C1412.16 369.357 1411.62 372.014 1409.65 372.703C1406.35 373.786 1400.45 373.687 1395.9 374.179C1397.24 374.573 1398.49 374.868 1399.83 375.163C1398.84 379.297 1398.75 382.446 1399.11 385.3C1397.95 386.481 1396.52 387.76 1393.3 388.547C1390.8 389.138 1388.12 389.236 1385.71 390.319C1385.09 390.614 1384.91 391.598 1384.46 392.189C1386.43 391.992 1388.39 391.697 1390.27 391.401C1391.61 392.386 1391.25 394.452 1390.45 395.535C1389.28 397.306 1386.96 397.798 1385.17 398.979C1381.87 402.128 1382.4 407.147 1380.62 410.985C1379.64 413.052 1378.92 415.906 1376.96 416.693C1370.43 419.252 1358.73 418.563 1356.41 415.02C1348.9 403.703 1343.27 394.846 1338.89 380.379C1340.23 390.417 1345.95 401.538 1352.03 412.56C1339.97 405.77 1326.92 407.836 1312.18 402.522C1314.15 405.77 1318.44 406.655 1321.65 407.836C1312.36 411.477 1305.21 419.842 1298.69 427.026C1296.1 415.119 1291.45 403.604 1283.86 393.665C1275.55 382.741 1268.85 368.078 1264.92 348.789C1264.02 342.884 1263.04 336.98 1262.06 331.075C1268.76 329.599 1274.75 327.434 1278.86 321.332C1284.57 324.973 1290.11 326.253 1296.37 327.04C1306.28 328.123 1316.02 319.069 1326.48 309.523C1329.69 306.57 1333.09 304.11 1336.21 302.634C1333.53 305.193 1329.69 310.015 1328.17 314.64C1326.65 319.462 1327.19 326.351 1328.62 331.272C1330.05 336.291 1333.09 336.586 1336.21 342.688C1337.02 344.361 1340.06 343.475 1341.66 341.408C1340.86 344.951 1340.15 349.97 1340.15 353.906C1340.95 348.002 1342.2 342.294 1344.26 337.373C1341.66 340.326 1337.91 343.376 1336.66 340.424C1333.8 334.027 1331.3 334.815 1329.96 330.288C1328.53 325.465 1328.71 319.364 1329.96 314.542C1331.03 310.113 1334.07 305.685 1336.3 302.634C1339.52 301.158 1342.56 300.764 1345.06 301.847C1350.69 304.307 1353.55 311.294 1357.75 316.018C1358.1 318.577 1358.37 319.954 1358.64 322.612C1358.01 325.465 1357.57 329.5 1356.32 331.961C1355.16 334.519 1359.89 331.862 1361.95 329.304C1365.52 324.875 1368.91 321.037 1373.29 317.494C1377.94 313.853 1384.1 310.9 1389.2 308.047C1388.75 302.634 1393.3 300.075 1394.47 293.58C1395.81 285.313 1396.16 276.85 1395.99 268.583V268.583ZM1394.11 339.637C1395.72 342.786 1397.15 343.967 1399.2 345.64C1400.09 346.427 1396.25 348.986 1395.81 351.151C1394.82 355.186 1396.34 360.5 1395.45 364.141C1396.07 363.846 1396.88 361.779 1396.79 360.5C1396.61 357.351 1395.63 354.103 1396.43 351.053C1396.97 348.887 1401.08 346.722 1400.27 345.738C1397.95 342.983 1397.24 340.719 1394.11 339.637V339.637ZM1393.22 336.586C1394.2 336.98 1394.65 337.669 1395.81 337.767C1399.65 338.161 1403.04 337.57 1405.99 338.456C1406.26 337.669 1406.35 336.586 1406.17 335.307C1405.81 335.7 1405.72 336.783 1405.19 336.783C1400.18 336.488 1396.61 337.275 1393.22 336.586" fill="white"/>
<path fill-rule="evenodd" clip-rule="evenodd" d="M1276.71 308.243C1275.91 312.77 1274.75 316.51 1273.14 319.265C1273.85 320.25 1274.57 321.135 1275.28 322.119C1270.9 325.564 1266.17 326.942 1262.24 327.827C1262.51 322.218 1265.37 315.821 1270.73 317.691C1260.18 311.196 1259.83 326.45 1260.45 332.059C1262.06 345.148 1263.67 359.811 1268.85 372.506C1274.3 385.792 1284.22 396.519 1290.47 409.411C1293.24 415.119 1294.04 421.811 1295.83 427.912C1295.03 433.718 1294.13 439.525 1293.42 445.331C1293.06 448.579 1294.13 450.941 1296.1 452.22C1296.99 444.445 1297.71 436.572 1300.3 429.585C1307.89 420.827 1316.83 413.052 1325.76 408.722C1326.48 408.82 1327.19 408.919 1327.91 409.017C1326.12 415.709 1325.58 424.468 1326.3 430.569C1318.26 426.633 1305.75 427.519 1302.89 431.947C1310.3 429.684 1318.61 430.471 1328.53 434.211C1327.55 426.436 1328.17 417.973 1331.21 409.411C1333 409.608 1334.87 409.903 1336.93 410.198C1344.26 411.379 1348.81 413.642 1353.01 415.807C1355.87 418.465 1358.55 420.925 1362.93 421.515C1368.29 422.303 1376.06 421.909 1380.35 418.366C1383.83 415.512 1384.46 407.246 1386.87 403.014C1390.27 406.065 1392.14 407.246 1394.56 411.281C1395.54 412.757 1395.27 416.398 1396.7 417.776C1404.03 424.468 1411.98 429.388 1419.04 436.474C1421.89 439.23 1424.84 443.166 1426.45 446.807C1422.16 442.969 1415.19 442.969 1408.05 444.249C1401.97 445.331 1394.82 447.988 1391.07 450.252C1385 456.55 1378.92 462.947 1372.85 469.245C1317.81 471.017 1264.02 471.902 1208.9 473.575C1198.36 477.413 1181.65 484.893 1174.32 485.778C1178.34 478.004 1185.4 468.556 1190.14 463.34C1196.12 456.55 1199.16 450.842 1201.4 444.347C1201.4 431.455 1201.75 419.941 1201.75 407.049C1190.32 391.205 1182.81 362.763 1171.02 356.367C1173.16 349.773 1180.31 347.018 1185.22 345.541C1205.06 339.342 1222.3 341.408 1243.39 334.027C1244.28 349.478 1244.01 365.027 1246.16 380.379C1248.03 393.96 1252.23 407.147 1255.27 420.531C1269.3 418.366 1282.61 417.579 1292.17 424.074C1285.38 415.315 1271.89 415.414 1256.52 417.973C1254.11 404.687 1250.8 391.598 1249.37 378.116C1247.59 362.37 1246.69 346.427 1246.96 330.484C1247.05 324.777 1249.37 318.872 1253.66 316.116C1260.9 311.491 1269.03 309.916 1276.71 308.243" fill="white"/>
<path fill-rule="evenodd" clip-rule="evenodd" d="M1389.82 448.874C1401.17 446.807 1414.3 445.233 1422.34 446.906C1425.38 447.595 1425.74 448.972 1428.6 450.252C1442.44 456.255 1452 461.864 1462.19 467.966C1463.44 468.655 1463.8 470.328 1463.98 472.197C1459.78 473.083 1452 475.051 1442.89 480.366C1426.99 489.616 1418.23 501.327 1407.15 512.546C1425.92 496.013 1444.95 476.921 1467.55 474.166C1473.09 477.905 1478.72 481.547 1485.15 483.712C1473.09 484.794 1460.31 488.534 1447.63 496.505C1426.18 509.988 1418.23 521.797 1409.21 533.213C1405.54 530.851 1401.88 529.276 1398.22 527.997C1396.7 528.194 1395.27 529.079 1393.39 528.292C1379.28 522.092 1367.75 519.829 1355.69 517.467C1357.48 516.188 1359.27 513.826 1361.05 512.546C1366.41 512.349 1371.86 514.318 1377.04 512.842C1385.62 510.578 1393.04 505.165 1401.79 502.705C1390.54 502.902 1378.47 513.727 1364 509.889C1367.57 505.657 1371.51 501.721 1374.63 497.096C1378.65 491.388 1377.67 486.762 1377.31 482.334C1376.42 488.239 1374.1 493.848 1369.63 498.473C1362.75 505.559 1355.51 514.318 1348.28 520.911C1322.46 544.432 1296.99 560.867 1272.33 587.438C1270.55 589.406 1269.21 592.161 1268.76 594.819C1285.74 576.908 1303.07 562.047 1322.9 547.286C1312.9 558.997 1306.28 572.479 1296.1 583.304C1277.87 602.692 1277.07 614.698 1262.15 622.079C1250 628.082 1236.42 629.46 1223.46 633.199C1233.38 616.961 1243.21 600.723 1253.13 584.485C1256.7 580.45 1261.08 577.301 1263.85 572.184C1265.99 568.247 1271.53 563.524 1275.1 558.8C1276.71 556.635 1279.39 544.53 1278.86 537.248C1279.39 534.886 1280.02 534.787 1281.18 532.425C1295.65 532.819 1329.51 518.746 1341.4 503.591C1342.56 502.213 1343.72 500.934 1343.45 498.867L1343.09 495.029C1340.68 485.286 1312.54 480.562 1297.35 483.613C1277.52 487.55 1256.25 501.524 1252.23 510.283C1252.05 506.642 1249.1 504.87 1247.5 506.051C1239.63 509.594 1233.83 508.905 1229.99 512.251C1224 517.369 1217.3 521.207 1209.53 524.454C1204.16 526.718 1201.04 529.965 1192.55 538.921C1180.67 540.298 1170.04 539.61 1156.37 537.248C1154.13 536.854 1150.02 537.937 1147.61 541.873C1143.5 541.676 1131.17 540.397 1127.87 538.822C1133.23 534.295 1143.41 516.089 1147.43 515.105C1154.85 513.235 1166.02 498.67 1169.59 491.88C1186.74 485.089 1197.73 481.153 1214.35 471.115C1264.65 469.147 1315.04 467.277 1365.43 465.407C1373.47 459.896 1381.69 454.385 1389.82 448.874" fill="white"/>
<path fill-rule="evenodd" clip-rule="evenodd" d="M1168.07 359.221C1175.13 364.535 1180.31 371.03 1183.97 379.789C1189.16 391.893 1196.93 401.046 1204.7 411.379C1204.25 423.779 1203.9 436.179 1203.45 448.48C1195.95 454.975 1188.89 461.963 1182.1 469.245C1173.7 478.299 1160.12 498.277 1151.99 507.823C1150.02 510.184 1146.72 510.184 1144.57 509.791C1142.96 511.07 1141.45 513.432 1138.85 517.861C1137.69 519.238 1134.92 518.943 1133.4 518.451C1118.57 513.334 1103.65 508.118 1091.06 495.423C1091.06 490.01 1091.06 481.842 1091.95 476.429C1087.66 479.086 1085.61 484.499 1082.66 488.042C1074.97 482.235 1068.9 472.69 1066.13 464.915C1069.7 459.994 1071.85 457.042 1075.42 452.121C1074.44 449.366 1075.06 446.709 1076.76 443.756C1089.45 422.303 1109.19 391.992 1121.79 381.363C1127.95 379.789 1135.19 378.805 1141.27 382.347C1150.11 387.465 1156.63 395.239 1163.16 404.982C1157.53 394.551 1152.35 385.89 1142.52 380.379C1138.68 378.214 1130.99 377.624 1126.7 378.116C1138.68 367.192 1152.26 359.418 1168.07 359.221" fill="white"/>
<path fill-rule="evenodd" clip-rule="evenodd" d="M1068.9 477.905C1072.83 482.924 1076.85 487.943 1082.57 492.569C1084.36 489.813 1086.5 487.058 1088.73 484.401C1087.66 488.632 1087.39 492.864 1087.75 497.096C1103.56 510.086 1119.47 517.27 1135.37 521.895C1127.6 534.787 1124.74 534 1114.82 540.102C1106.07 538.429 1096.77 539.118 1087.75 541.873C1082.03 543.645 1076.14 550.041 1070.51 552.108C1076.94 550.632 1082.48 545.219 1088.02 544.038C1097.31 542.168 1104.99 540.987 1114.37 542.365C1125.1 543.94 1135.82 544.432 1146.63 545.121C1140.46 561.752 1140.73 578.285 1147.25 595.015C1127.78 602.396 1107.58 610.86 1087.39 615.485C1073.01 618.733 1060.32 614.501 1050.32 609.187L1110.71 561.063L1083.37 562.146L1046.29 581.041L1052.37 541.972L1078.37 498.769L1053.09 515.892C1058.89 499.261 1059.79 493.356 1068.9 477.905Z" fill="white"/>
<path fill-rule="evenodd" clip-rule="evenodd" d="M1149.49 545.514C1150.74 542.365 1153.33 539.905 1155.12 540.003C1164.76 543.054 1173.97 543.448 1183.71 542.365C1185.85 542.07 1187.28 543.448 1187.9 546.302C1186.65 547.581 1185.76 548.27 1183.35 549.451C1180.85 549.648 1176.56 563.228 1178.26 573.759C1179.68 582.714 1184.69 590.193 1189.42 593.441C1191.21 593.539 1192.82 593.244 1194.52 593.342C1193.89 596.59 1191.84 600.33 1189.69 600.527C1177.72 601.609 1165.39 602.396 1156.54 600.527C1153.95 600.034 1151.09 597.968 1150.11 595.803C1142.79 579.073 1143.14 562.146 1149.49 545.514" fill="white"/>
<path fill-rule="evenodd" clip-rule="evenodd" d="M1183.71 551.714C1181.02 556.143 1179.15 565.394 1180.22 572.086C1181.38 579.171 1184.78 586.946 1190.05 591.177C1204.25 590.095 1218.91 589.997 1233.56 588.422C1239.54 587.831 1247.41 583.698 1250.89 580.451C1246.33 573.463 1241.24 567.657 1239.9 558.308C1242.31 567.559 1247.41 573.07 1252.32 579.27C1256.79 576.12 1258.4 574.94 1260.81 570.511C1262.68 567.067 1267.51 563.622 1271.53 559.292C1273.32 557.422 1276.27 548.368 1277.07 541.972C1277.34 540.594 1277.07 538.724 1276 538.626C1274.39 542.464 1271.89 548.467 1270.01 550.041C1265.54 553.683 1261.08 559.39 1257.41 563.819C1260.54 559.194 1264.29 552.895 1268.58 548.762C1270.46 546.991 1275.37 537.838 1278.14 532.229C1276.18 532.229 1273.58 531.54 1271.71 531.54C1268.94 534.689 1268.22 536.362 1265.45 539.118C1262.77 541.873 1254.82 550.829 1251.7 554.273C1254.91 548.565 1261.52 540.889 1265.45 535.772C1269.03 530.851 1271.8 526.619 1275.19 518.648C1278.32 511.365 1282.25 504.083 1275.82 505.461C1271.08 506.445 1264.83 514.318 1261.17 521.994C1253.39 530.359 1249.91 534.492 1243.65 543.251C1238.2 546.105 1231.15 551.124 1225.61 553.978C1216.05 556.438 1209.08 549.254 1209.26 543.546C1210.24 538.429 1215.42 535.87 1221.5 533.705C1227.22 531.048 1233.02 528.391 1238.74 525.734C1243.21 523.667 1245.71 521.108 1249.02 515.991C1250.8 513.137 1249.46 507.823 1247.05 508.315C1246.87 508.315 1240.08 511.562 1233.92 513.531C1230.34 514.711 1227.84 518.451 1223.02 521.01C1217.92 523.864 1214.71 524.75 1209.53 527.21C1205.24 529.178 1197.2 537.445 1192.19 544.826C1189.96 548.073 1186.92 549.943 1183.71 551.714" fill="white"/>
<path fill-rule="evenodd" clip-rule="evenodd" d="M1254.82 582.419C1251.52 584.289 1247.59 588.52 1241.96 589.898C1229.72 592.752 1210.78 592.949 1198.36 593.539C1196.75 598.361 1194.69 602.396 1191.66 603.676C1183.71 604.758 1171.2 604.758 1163.33 604.266C1155.83 603.873 1150.38 603.282 1148.68 599.444C1138.68 603.184 1128.67 606.825 1118.75 610.565C1109.19 619.618 1099.63 628.771 1090.16 637.825L1112.68 641.072L1143.95 621.39C1154.4 619.422 1164.76 617.453 1175.22 615.485C1140.64 638.415 1106.16 661.443 1071.58 684.373C1106.42 676.5 1141.27 668.628 1176.11 660.755C1185.76 649.339 1197.91 639.891 1223.46 633.199C1232.22 627.491 1242.05 620.799 1250.8 615.091C1251.7 604.66 1253.93 592.85 1254.82 582.419Z" fill="white"/>
<path fill-rule="evenodd" clip-rule="evenodd" d="M1417.96 527.505C1438.96 502.902 1457.27 491.486 1480.95 488.14C1485.33 489.813 1489.97 495.029 1495.33 494.143C1488.9 497.883 1484.52 500.639 1482.02 503.493C1479.07 507.134 1474.52 508.905 1469.16 509.889C1473.09 510.677 1477.02 512.35 1483.09 506.248C1496.23 493.258 1507.22 494.537 1520.62 496.505C1526.69 497.391 1533.48 501.918 1539.56 502.902C1550.91 504.772 1564.4 505.362 1575.48 504.181C1573.69 506.15 1571.9 508.413 1570.56 510.873C1562.34 515.302 1549.92 518.057 1540.54 518.746C1550.64 519.632 1563.41 516.089 1569.04 514.318C1568.24 517.073 1568.06 520.124 1569.13 523.175C1570.38 516.877 1571.28 510.381 1577.08 505.756C1579.76 503.591 1584.32 501.623 1589.77 499.851C1586.2 500.245 1582.62 500.639 1579.41 502.016C1581.46 497.293 1586.02 493.061 1591.02 488.731C1592 493.651 1591.92 498.474 1591.65 503.394C1589.41 506.543 1584.95 509.299 1581.28 512.94C1578.6 515.499 1578.51 518.353 1579.94 520.419C1584.86 522.781 1589.77 525.242 1594.68 527.603C1590.84 531.343 1583.43 534.787 1578.07 534.591C1574.31 534.394 1572.44 533.607 1569.67 528.489C1568.86 531.934 1570.92 534.394 1574.31 536.362C1571.46 538.724 1568.42 539.708 1564.67 540.102C1562.97 540.299 1561.72 539.806 1560.47 538.035C1559.39 539.314 1561.18 542.07 1561.99 542.66C1545.64 547.581 1528.39 554.568 1511.68 557.717C1500.96 559.686 1490.06 560.375 1482.02 552.01C1477.82 547.679 1473.89 539.61 1470.32 538.724C1474.25 542.956 1477.02 547.876 1478.72 552.797C1471.75 547.975 1464.69 546.105 1457.72 544.924C1442.89 542.464 1430.74 534.197 1417.96 527.505" fill="white"/>
<path fill-rule="evenodd" clip-rule="evenodd" d="M1179.42 655.834C1189.96 650.225 1200.59 642.45 1211.85 638.907C1226.86 634.282 1238.83 634.479 1260.9 626.409C1254.55 633.888 1248.66 638.71 1240.71 644.714C1238.65 646.19 1240.35 649.634 1238.92 650.126C1230.7 653.177 1225.52 653.374 1216.85 653.374C1222.75 654.358 1229 656.129 1239.37 653.374C1241.33 652.882 1242.05 654.85 1242.49 655.44C1239.99 659.278 1235.61 663.313 1230.88 667.053C1222.03 674.04 1211.76 676.894 1202.47 680.437C1210.69 678.567 1218.82 678.075 1232.13 669.612C1238.56 665.478 1243.12 660.164 1245.62 655.736C1247.05 656.523 1248.84 657.802 1249.55 660.459C1250.27 663.412 1249.82 665.577 1250.71 669.021C1251.34 671.974 1255.45 674.139 1255.27 677.977C1254.73 679.059 1253.21 681.323 1250.53 682.012C1205.06 694.018 1176.65 716.653 1148.86 743.421L1099.19 750.802L1160.83 708.386L1138.23 709.469L1080.87 738.106L1162.8 673.351L1118.48 686.637L1179.42 655.834" fill="white"/>
<path fill-rule="evenodd" clip-rule="evenodd" d="M1189.51 709.272C1210.87 698.151 1232.4 688.408 1255 683.685C1286.9 698.348 1312.09 715.964 1333.09 735.548C1319.95 740.96 1306.82 748.833 1293.78 758.478C1309.5 749.916 1322.99 743.814 1334.25 740.173C1338.27 741.944 1341.66 744.109 1344.34 746.668C1316.92 756.706 1290.56 779.833 1264.56 802.468C1276.44 796.465 1289.13 788.1 1301.01 784.95C1285.2 793.217 1266.35 813.49 1246.69 836.617L1255 808.372L1215.69 817.525L1290.74 742.732L1248.57 745.487L1187.1 761.824C1183.44 762.808 1255.63 717.833 1255.63 717.833L1217.48 723.049L1170.48 746.668C1182.54 735.056 1194.69 723.541 1206.76 711.929C1201.04 711.043 1195.32 710.157 1189.51 709.272" fill="white"/>
<path fill-rule="evenodd" clip-rule="evenodd" d="M1342.47 757.592C1330.5 762.512 1318.52 769.893 1306.55 779.144C1313.79 780.128 1321.12 781.113 1328.35 782.096C1342.74 794.004 1357.12 805.814 1371.42 817.623C1375.88 830.613 1353.99 826.578 1326.57 854.724C1348.37 846.851 1370.08 837.108 1391.88 836.715C1395.36 839.274 1397.59 852.264 1394.56 856.988C1387.41 869.289 1383.57 877.359 1376.42 889.759C1386.78 875.784 1394.82 865.451 1405.9 855.02C1404.92 841.045 1401.08 832.681 1397.33 824.019C1394.56 817.328 1393.22 811.128 1388.75 805.617C1374.63 788.198 1357.92 773.633 1342.47 757.592" fill="white"/>
<path fill-rule="evenodd" clip-rule="evenodd" d="M1086.5 851.674L1211.4 780.817H1182.99L1086.5 851.674Z" fill="white"/>
<path fill-rule="evenodd" clip-rule="evenodd" d="M1157.44 819.592L1177.36 808.668L1231.59 848.622L1157.44 819.592Z" fill="white"/>
<path fill-rule="evenodd" clip-rule="evenodd" d="M1059.96 656.326L1053.26 674.729L1080.07 653.866L1059.96 656.326Z" fill="white"/>
<path fill-rule="evenodd" clip-rule="evenodd" d="M1041.02 710.453L1006.18 754.738L1028.69 744.109L1042.1 727.675L1104.64 695.691L1049.96 715.373L1041.02 710.453Z" fill="white"/>
<path fill-rule="evenodd" clip-rule="evenodd" d="M967.762 835.928L1031.91 805.519L1041.65 809.16L1094.45 778.652L1018.06 839.569H996.977L949 869.978L996.173 832.385L967.762 835.928Z" fill="white"/>
<path fill-rule="evenodd" clip-rule="evenodd" d="M1317.81 866.337L1294.31 870.864L1298.33 876.178L1256.07 912L1317.81 866.337Z" fill="white"/>
<path fill-rule="evenodd" clip-rule="evenodd" d="M1579.05 520.813C1579.05 517.565 1580.57 515.991 1582.18 514.318C1585.39 510.775 1589.41 508.315 1592.99 505.362C1595.4 502.804 1596.65 498.474 1596.65 496.112C1595.85 497.785 1594.95 500.835 1592.99 502.41C1593.88 494.242 1591.83 484.893 1593.08 478.988C1593.79 475.347 1597.19 473.378 1598.08 475.544C1600.85 482.531 1601.39 490.207 1603.53 497.489C1604.6 500.934 1603.98 505.264 1601.56 510.48C1604.78 508.019 1606.75 501.131 1606.57 496.702C1606.12 489.026 1602.1 479.972 1600.05 470.328C1598.88 465.112 1601.92 459.798 1604.33 461.766C1608.18 470.229 1613.63 478.004 1615.86 487.156C1617.38 493.159 1615.95 496.407 1616.31 502.607C1616.4 503.689 1617.11 504.673 1617.74 505.461C1618.36 498.277 1619.34 490.305 1618.63 486.27C1617.02 476.528 1614.34 470.328 1613.8 460.487C1613.09 449.76 1619.7 448.087 1620.95 452.318C1623.99 462.848 1625.24 469.836 1627.74 480.563C1629.44 487.943 1627.92 489.616 1627.38 504.477C1627.3 506.051 1624.17 509.299 1623.01 510.185C1612.73 518.451 1600.22 523.372 1594.68 527.603C1589.24 527.603 1583.7 527.603 1578.25 527.603C1578.51 525.34 1578.78 523.076 1579.05 520.813" fill="white"/>
<path fill-rule="evenodd" clip-rule="evenodd" d="M1629.53 481.448C1632.3 476.724 1636.5 471.607 1641.32 469.147C1646.15 464.521 1651.06 460.487 1656.24 460.093C1659.82 459.896 1661.51 463.045 1658.3 466.49C1653.38 471.804 1647.93 476.724 1643.65 482.629C1639.8 487.845 1637.84 494.439 1634 499.654C1632.66 501.426 1630.33 502.016 1628.55 503.197C1628.81 496.112 1629.8 493.061 1630.06 487.943C1630.15 485.778 1629.71 483.613 1629.53 481.448" fill="white"/>
<path fill-rule="evenodd" clip-rule="evenodd" d="M1628.64 474.756C1630.42 471.509 1632.03 468.163 1634 465.112C1635.87 462.16 1639.54 458.125 1640.16 456.845C1641.05 454.877 1638.02 453.106 1633.64 454.09C1631.76 454.483 1627.74 456.648 1625.15 461.274C1626.4 466.49 1627.47 470.623 1628.64 474.756Z" fill="white"/>
<path fill-rule="evenodd" clip-rule="evenodd" d="M1625.69 389.236C1633.1 389.236 1639.18 382.544 1639.18 374.278C1639.18 366.11 1633.1 359.418 1625.69 359.418C1618.18 359.418 1612.11 366.11 1612.11 374.278C1612.11 382.544 1618.18 389.236 1625.69 389.236Z" fill="white"/>
<path fill-rule="evenodd" clip-rule="evenodd" d="M1033.7 602.79L1044.24 605.939L1074.71 584.092L1033.7 602.79Z" fill="white"/>
<path fill-rule="evenodd" clip-rule="evenodd" d="M1219.8 535.575C1225.88 536.559 1229.27 539.806 1230.43 544.235C1230.61 544.825 1230.61 545.514 1230.52 546.203L1208.45 540.889L1208.1 543.94L1229.63 549.057C1228.38 551.714 1225.96 554.076 1224.09 554.371C1224.71 554.273 1226.14 554.175 1226.86 554.175C1229.9 552.994 1232.04 550.336 1232.67 547.483L1254.91 531.835L1256.34 528.489L1232.84 545.219C1232.84 544.825 1232.84 544.333 1232.67 543.94C1231.77 539.708 1226.23 535.87 1222.57 535.476C1221.68 535.575 1220.69 535.575 1219.8 535.575" fill="white"/>
<path fill-rule="evenodd" clip-rule="evenodd" d="M1252.05 511.464L1267.42 515.105L1268.58 513.235L1252.68 509.397L1252.23 510.283L1252.05 511.464V511.464ZM1247.5 521.896L1255.09 518.648L1262.95 519.238L1263.67 517.959L1253.57 517.369L1250.71 515.302L1250.8 519.042L1247.5 521.896ZM1275.1 524.356C1280.2 525.143 1290.56 524.257 1298.42 522.191L1277.34 517.762L1278.41 515.499L1302.8 520.813C1303.16 520.715 1303.43 520.518 1303.78 520.419C1319.6 513.629 1338.72 502.312 1342.65 495.324C1342.65 496.21 1342.65 496.997 1342.65 497.883C1339.16 503.788 1320.13 515.696 1303.87 522.289C1294.76 526.029 1281.54 526.915 1273.94 526.422C1274.3 525.734 1274.75 525.045 1275.1 524.356" fill="white"/>
</g>
</g>
<defs>
<linearGradient id="paint0_linear_4_3" x1="640.922" y1="708.832" x2="1942.46" y2="618.454" gradientUnits="userSpaceOnUse">
<stop stop-color="#F8A036"/>
<stop offset="1" stop-color="#FF5E43"/>
</linearGradient>
<linearGradient id="paint1_linear_4_3" x1="640.922" y1="708.832" x2="1942.46" y2="618.454" gradientUnits="userSpaceOnUse">
<stop stop-color="#F8A036"/>
<stop offset="1" stop-color="#FF5E43"/>
</linearGradient>
<clipPath id="clip0_4_3">
<rect width="1743" height="1117.89" fill="white"/>
</clipPath>
<clipPath id="clip1_4_3">
<rect width="711" height="704" fill="white" transform="translate(949 208)"/>
</clipPath>
</defs>
</svg>
