<svg width="108" height="108" viewBox="0 0 108 108" fill="none" xmlns="http://www.w3.org/2000/svg">
<path d="M80.6832 107.546V99.8668C80.6832 98.8584 80.5103 97.8597 80.1745 96.9278C79.8388 95.9965 79.3466 95.1499 78.7262 94.4363C78.1053 93.7233 77.3686 93.1577 76.5582 92.7719C75.7473 92.386 74.8783 92.1873 74.0008 92.1873H47.2694C38.408 92.1873 29.9096 88.1419 23.6435 80.9409C17.3775 73.7399 13.8573 63.9737 13.8571 53.79C13.8571 48.7475 14.7214 43.7545 16.4005 39.0959C18.0797 34.4372 20.5408 30.2043 23.6434 26.6387C26.7461 23.0732 30.4294 20.2449 34.4832 18.3153C38.5369 16.3857 42.8817 15.3926 47.2694 15.3927H73.9988C74.8763 15.3929 75.7458 15.1945 76.5567 14.8088C77.3676 14.423 78.1048 13.8573 78.7252 13.1442C79.3461 12.431 79.8383 11.5843 80.1745 10.6524C80.5103 9.72058 80.6832 8.72178 80.6832 7.71308V0.0335083H47.2709C41.1282 0.0335083 35.0456 1.42396 29.3703 4.12548C23.6952 6.827 18.5386 10.7867 14.195 15.7784C9.85143 20.7702 6.40591 26.6963 4.05523 33.2183C1.70454 39.7403 0.494685 46.7306 0.494751 53.79C0.494751 68.0468 5.42292 81.7201 14.1951 91.8014C22.9674 101.883 34.8651 107.546 47.2709 107.546H80.6832Z" fill="url(#paint0_linear_4_25)"/>
<path d="M27.2223 53.79C27.2223 59.9001 29.3343 65.7597 33.0938 70.0798C36.8532 74.4006 41.9521 76.8276 47.2687 76.8276H80.6834C84.2281 76.8276 87.627 78.4459 90.1333 81.3262C92.6396 84.2065 94.0479 88.1131 94.0479 92.1867V107.546H107.413V92.1873C107.413 84.0406 104.597 76.2274 99.5842 70.4663C94.5711 64.7058 87.7723 61.4696 80.6834 61.4696H47.2697C45.4974 61.4696 43.7977 60.6604 42.5444 59.2205C41.2912 57.7801 40.5872 55.8267 40.5872 53.79C40.5872 51.7532 41.2912 49.7999 42.5444 48.3597C43.7977 46.9195 45.4974 46.1104 47.2697 46.1104H80.6834C87.7723 46.1104 94.5711 42.8741 99.5842 37.1134C104.597 31.3527 107.413 23.5395 107.413 15.3927V0.0335083H94.0458V15.3927C94.0458 19.4656 92.6381 23.3718 90.1323 26.252C87.6265 29.1322 84.2276 30.7506 80.6834 30.7512H47.2697C44.637 30.7511 42.03 31.3469 39.5977 32.5046C37.1654 33.6624 34.9553 35.3594 33.0938 37.4988C31.2322 39.6382 29.7555 42.178 28.7481 44.9733C27.7406 47.7685 27.2222 50.7645 27.2223 53.79Z" fill="url(#paint1_linear_4_25)"/>
<defs>
<linearGradient id="paint0_linear_4_25" x1="12.6032" y1="53.79" x2="115.485" y2="53.79" gradientUnits="userSpaceOnUse">
<stop stop-color="#F54A48"/>
<stop offset="1" stop-color="#FA982F"/>
</linearGradient>
<linearGradient id="paint1_linear_4_25" x1="12.5474" y1="53.7897" x2="115.512" y2="53.7897" gradientUnits="userSpaceOnUse">
<stop stop-color="#F54A48"/>
<stop offset="1" stop-color="#FA982F"/>
</linearGradient>
</defs>
</svg>
