<svg  width="711" height="704" viewBox="0 0 711 704" fill="none" xmlns="http://www.w3.org/2000/svg">
<g clip-path="url(#clip0_102_4)">
<path fill-rule="evenodd" clip-rule="evenodd" d="M479.059 81.4467C488.53 84.8911 493.98 83.2181 499.072 81.4467C494.427 80.2658 489.602 81.8404 486.028 79.0848C491.746 79.4785 496.571 76.8213 501.038 74.9515C499.34 74.5579 496.749 74.9515 494.695 73.6722C501.931 73.0817 505.416 67.177 509.794 65.7992C504.344 61.2723 499.698 63.9294 493.712 54.4819C489.87 55.3676 487.1 55.3676 484.867 54.4819C487.547 54.1866 489.959 53.9898 491.478 52.4152C486.922 52.612 482.276 51.1359 477.541 52.4152C481.293 49.266 486.832 50.2502 490.138 47.5931C473.878 28.9932 453.061 10.787 428.402 3.11092C415.804 -0.825559 395.97 -0.431927 385.606 1.04425C381.675 6.94896 383.373 14.4283 386.857 21.2187C379.799 14.4283 381.139 9.01559 381.318 3.20929C378.995 8.32671 377.923 14.4282 379.978 20.6282C371.758 18.8568 364.521 23.9742 357.552 31.9456C340.488 51.4311 342.185 71.015 330.571 87.253C348.171 91.7799 373.545 79.6753 382.301 79.5769C368.006 83.3166 350.941 94.4371 333.162 90.5006C331.821 96.9958 328.694 104.475 327.354 110.97C333.072 112.053 340.309 116.186 346.295 116.875C366.755 119.237 370.329 100.145 386.41 93.1577C394.898 89.5165 403.654 91.9768 408.21 108.51C409.461 112.938 409.014 118.154 408.836 122.78C412.231 121.697 414.107 112.25 427.24 105.656C431.35 103.589 435.281 102.605 439.034 98.5704C438.23 94.3387 443.858 90.3038 441.625 86.6625C434.924 82.3324 422.684 80.9547 411.784 79.7737C424.024 79.3801 434.834 80.6594 442.875 84.5959C444.216 75.3452 446.092 64.9135 442.697 54.4819C432.244 42.3772 416.698 37.6535 401.509 32.4377C417.681 36.3741 431.082 40.7042 444.662 49.266C446.36 51.6279 449.04 56.1549 450.202 59.4025C458.51 63.6342 467.802 71.2119 479.059 81.4467" fill="white"/>
<path fill-rule="evenodd" clip-rule="evenodd" d="M446.985 60.5834C457.885 65.504 468.517 72.9833 476.558 81.1515C476.111 94.8308 474.146 107.624 469.946 119.729C468.338 124.453 465.122 128.192 463.156 132.719C462.531 134.294 462.263 136.065 462.263 137.837C462.263 144.922 462.888 152.008 463.067 159.094C463.156 161.357 462.62 164.014 460.655 164.703C457.349 165.786 451.452 165.687 446.896 166.179C448.236 166.573 449.487 166.868 450.827 167.163C449.844 171.297 449.755 174.446 450.112 177.3C448.951 178.481 447.521 179.76 444.305 180.547C441.803 181.138 439.123 181.236 436.711 182.319C436.085 182.614 435.907 183.598 435.46 184.189C437.425 183.992 439.391 183.697 441.267 183.401C442.607 184.386 442.25 186.452 441.446 187.535C440.284 189.306 437.962 189.798 436.175 190.979C432.869 194.128 433.405 199.147 431.618 202.985C430.635 205.052 429.921 207.906 427.955 208.693C421.433 211.252 409.729 210.563 407.406 207.02C399.901 195.703 394.273 186.846 389.895 172.379C391.235 182.417 396.953 193.538 403.028 204.56C390.967 197.77 377.923 199.836 363.181 194.522C365.147 197.77 369.435 198.655 372.651 199.836C363.36 203.477 356.212 211.842 349.69 219.026C347.099 207.119 342.453 195.604 334.859 185.665C326.55 174.741 319.849 160.078 315.918 140.789C315.025 134.884 314.042 128.98 313.059 123.075C319.76 121.599 325.746 119.434 329.856 113.332C335.574 116.973 341.113 118.253 347.367 119.04C357.284 120.123 367.023 111.069 377.476 101.523C380.692 98.5704 384.087 96.1101 387.214 94.6339C384.534 97.1926 380.692 102.015 379.174 106.64C377.655 111.462 378.191 118.351 379.62 123.272C381.05 128.291 384.087 128.586 387.214 134.688C388.019 136.361 391.056 135.475 392.664 133.408C391.86 136.951 391.146 141.97 391.146 145.906C391.95 140.002 393.2 134.294 395.255 129.373C392.664 132.326 388.912 135.376 387.661 132.424C384.802 126.027 382.301 126.815 380.96 122.288C379.531 117.465 379.71 111.364 380.96 106.542C382.033 102.113 385.07 97.6847 387.304 94.6339C390.52 93.1577 393.558 92.7641 396.059 93.8466C401.688 96.3069 404.547 103.294 408.746 108.018C409.104 110.577 409.372 111.954 409.64 114.612C409.014 117.465 408.568 121.5 407.317 123.961C406.155 126.519 410.89 123.862 412.945 121.304C416.519 116.875 419.914 113.037 424.292 109.494C428.938 105.853 435.103 102.9 440.195 100.047C439.748 94.6339 444.305 92.0752 445.466 85.58C446.806 77.3134 447.164 68.85 446.985 60.5834V60.5834ZM445.109 131.637C446.717 134.786 448.147 135.967 450.202 137.64C451.095 138.427 447.253 140.986 446.807 143.151C445.824 147.186 447.343 152.5 446.449 156.141C447.075 155.846 447.879 153.779 447.789 152.5C447.611 149.351 446.628 146.103 447.432 143.053C447.968 140.887 452.078 138.722 451.274 137.738C448.951 134.983 448.236 132.719 445.109 131.637V131.637ZM444.216 128.586C445.198 128.98 445.645 129.669 446.807 129.767C450.648 130.161 454.043 129.57 456.992 130.456C457.26 129.669 457.349 128.586 457.17 127.307C456.813 127.7 456.724 128.783 456.188 128.783C451.184 128.488 447.611 129.275 444.216 128.586" fill="white"/>
<path fill-rule="evenodd" clip-rule="evenodd" d="M327.712 100.243C326.908 104.77 325.746 108.51 324.138 111.265C324.853 112.25 325.567 113.135 326.282 114.119C321.904 117.564 317.169 118.942 313.238 119.827C313.506 114.218 316.365 107.821 321.726 109.691C311.183 103.196 310.826 118.45 311.451 124.059C313.059 137.148 314.668 151.811 319.85 164.506C325.299 177.792 335.217 188.519 341.471 201.411C344.24 207.119 345.044 213.811 346.831 219.912C346.027 225.718 345.134 231.525 344.419 237.331C344.062 240.579 345.134 242.941 347.099 244.22C347.993 236.445 348.707 228.572 351.298 221.585C358.893 212.827 367.827 205.052 376.761 200.722C377.476 200.82 378.191 200.919 378.906 201.017C377.119 207.709 376.583 216.468 377.297 222.569C369.256 218.633 356.748 219.519 353.889 223.947C361.305 221.684 369.614 222.471 379.531 226.211C378.548 218.436 379.174 209.973 382.211 201.411C383.998 201.608 385.874 201.903 387.929 202.198C395.255 203.379 399.812 205.642 404.011 207.807C406.87 210.465 409.55 212.925 413.928 213.515C419.289 214.303 427.062 213.909 431.35 210.366C434.834 207.512 435.46 199.246 437.872 195.014C441.267 198.065 443.143 199.246 445.556 203.281C446.538 204.757 446.27 208.398 447.7 209.776C455.026 216.468 462.978 221.388 470.036 228.474C472.895 231.23 475.843 235.166 477.451 238.807C473.163 234.969 466.194 234.969 459.047 236.249C452.971 237.331 445.824 239.988 442.071 242.252C435.996 248.55 429.921 254.947 423.845 261.245C368.81 263.017 315.025 263.902 259.9 265.575C249.358 269.413 232.65 276.893 225.324 277.778C229.345 270.004 236.403 260.556 241.138 255.34C247.124 248.55 250.162 242.842 252.395 236.347C252.395 223.455 252.753 211.941 252.753 199.049C241.317 183.205 233.812 154.763 222.018 148.367C224.163 141.773 231.31 139.018 236.224 137.541C256.058 131.342 273.302 133.408 294.387 126.027C295.28 141.478 295.012 157.027 297.156 172.379C299.032 185.96 303.232 199.147 306.269 212.531C320.296 210.366 333.608 209.579 343.168 216.074C336.378 207.315 322.887 207.414 307.52 209.973C305.108 196.687 301.802 183.598 300.373 170.116C298.586 154.37 297.692 138.427 297.96 122.484C298.05 116.777 300.373 110.872 304.661 108.116C311.898 103.491 320.028 101.916 327.712 100.243" fill="white"/>
<path fill-rule="evenodd" clip-rule="evenodd" d="M440.82 240.874C452.167 238.807 465.301 237.233 473.342 238.906C476.379 239.595 476.737 240.972 479.596 242.252C493.444 248.255 503.004 253.864 513.189 259.966C514.44 260.655 514.797 262.328 514.976 264.197C510.776 265.083 503.004 267.051 493.89 272.366C477.987 281.616 469.232 293.327 458.153 304.546C476.915 288.013 495.945 268.921 518.549 266.166C524.089 269.905 529.717 273.547 536.15 275.712C524.089 276.794 511.312 280.534 498.626 288.505C477.183 301.988 469.232 313.797 460.208 325.213C456.545 322.851 452.882 321.276 449.219 319.997C447.7 320.194 446.27 321.079 444.394 320.292C430.278 314.092 418.753 311.829 406.691 309.467C408.478 308.188 410.265 305.826 412.052 304.546C417.412 304.349 422.862 306.318 428.044 304.842C436.621 302.578 444.037 297.165 452.793 294.705C441.535 294.902 429.474 305.727 415 301.889C418.574 297.657 422.505 293.721 425.632 289.096C429.653 283.388 428.67 278.762 428.312 274.334C427.419 280.239 425.096 285.848 420.629 290.473C413.749 297.559 406.513 306.318 399.276 312.911C373.456 336.432 347.993 352.867 323.334 379.438C321.547 381.406 320.207 384.161 319.76 386.819C336.735 368.908 354.068 354.047 373.902 339.286C363.896 350.997 357.284 364.479 347.099 375.304C328.873 394.692 328.069 406.698 313.149 414.079C300.998 420.082 287.418 421.46 274.463 425.199C284.38 408.961 294.208 392.723 304.125 376.485C307.699 372.45 312.077 369.301 314.846 364.184C316.99 360.247 322.53 355.524 326.104 350.8C327.712 348.635 330.392 336.53 329.856 329.248C330.392 326.886 331.017 326.787 332.179 324.425C346.653 324.819 380.514 310.746 392.396 295.591C393.558 294.213 394.719 292.934 394.451 290.867L394.094 287.029C391.682 277.286 363.538 272.562 348.35 275.613C328.516 279.55 307.252 293.524 303.232 302.283C303.053 298.642 300.105 296.87 298.496 298.051C290.634 301.594 284.827 300.905 280.985 304.251C274.999 309.369 268.298 313.207 260.525 316.454C255.165 318.718 252.038 321.965 243.55 330.921C231.668 332.298 221.036 331.61 207.366 329.248C205.133 328.854 201.023 329.937 198.61 333.873C194.501 333.676 182.171 332.397 178.866 330.822C184.226 326.295 194.411 308.089 198.432 307.105C205.847 305.235 217.015 290.67 220.589 283.88C237.743 277.089 248.732 273.153 265.35 263.115C315.65 261.147 366.04 259.277 416.43 257.407C424.471 251.896 432.69 246.385 440.82 240.874" fill="white"/>
<path fill-rule="evenodd" clip-rule="evenodd" d="M219.07 151.221C226.128 156.535 231.31 163.03 234.973 171.789C240.155 183.893 247.928 193.046 255.701 203.379C255.254 215.779 254.897 228.179 254.45 240.48C246.945 246.975 239.887 253.963 233.097 261.245C224.699 270.299 211.118 290.277 202.988 299.823C201.023 302.184 197.717 302.184 195.573 301.791C193.965 303.07 192.446 305.432 189.855 309.861C188.693 311.238 185.924 310.943 184.405 310.451C169.574 305.334 154.653 300.118 142.056 287.423C142.056 282.01 142.056 273.842 142.949 268.429C138.661 271.086 136.606 276.499 133.658 280.042C125.974 274.235 119.899 264.69 117.129 256.915C120.703 251.994 122.847 249.042 126.421 244.121C125.438 241.366 126.064 238.709 127.761 235.756C140.448 214.303 160.193 183.992 172.79 173.363C178.955 171.789 186.192 170.805 192.267 174.347C201.112 179.465 207.634 187.239 214.156 196.982C208.528 186.551 203.346 177.89 193.518 172.379C189.676 170.214 181.993 169.624 177.704 170.116C189.676 159.192 203.256 151.418 219.07 151.221" fill="white"/>
<path fill-rule="evenodd" clip-rule="evenodd" d="M119.899 269.905C123.83 274.924 127.85 279.943 133.568 284.569C135.355 281.813 137.5 279.058 139.733 276.401C138.661 280.632 138.393 284.864 138.75 289.096C154.564 302.086 170.467 309.27 186.37 313.895C178.598 326.787 175.739 326 165.821 332.102C157.066 330.429 147.774 331.118 138.75 333.873C133.032 335.645 127.136 342.041 121.507 344.108C127.94 342.632 133.479 337.219 139.018 336.038C148.31 334.168 155.994 332.987 165.375 334.365C176.096 335.94 186.817 336.432 197.628 337.121C191.463 353.752 191.731 370.285 198.253 387.015C178.776 394.396 158.585 402.86 138.393 407.485C124.009 410.733 111.322 406.501 101.315 401.187L161.712 353.063L134.373 354.146L97.2947 373.041L103.37 333.972L129.369 290.769L104.085 307.892C109.892 291.261 110.786 285.356 119.899 269.905Z" fill="white"/>
<path fill-rule="evenodd" clip-rule="evenodd" d="M200.487 337.514C201.737 334.365 204.328 331.905 206.115 332.003C215.764 335.054 224.967 335.448 234.705 334.365C236.849 334.07 238.279 335.448 238.904 338.302C237.654 339.581 236.76 340.27 234.348 341.451C231.846 341.648 227.558 355.228 229.255 365.759C230.685 374.714 235.688 382.193 240.423 385.441C242.21 385.539 243.818 385.244 245.516 385.342C244.89 388.59 242.835 392.33 240.691 392.527C228.719 393.609 216.39 394.396 207.545 392.527C204.954 392.034 202.095 389.968 201.112 387.803C193.786 371.073 194.143 354.146 200.487 337.514" fill="white"/>
<path fill-rule="evenodd" clip-rule="evenodd" d="M234.705 343.714C232.025 348.143 230.149 357.394 231.221 364.086C232.382 371.171 235.777 378.946 241.049 383.177C255.254 382.095 269.906 381.997 284.559 380.422C290.545 379.831 298.407 375.698 301.891 372.451C297.335 365.463 292.242 359.657 290.902 350.308C293.314 359.559 298.407 365.07 303.321 371.27C307.788 368.12 309.396 366.94 311.809 362.511C313.685 359.067 318.509 355.622 322.53 351.292C324.317 349.422 327.265 340.368 328.069 333.972C328.337 332.594 328.069 330.724 326.997 330.626C325.389 334.464 322.887 340.467 321.011 342.041C316.544 345.683 312.077 351.39 308.414 355.819C311.541 351.194 315.293 344.895 319.581 340.762C321.458 338.991 326.372 329.838 329.141 324.229C327.176 324.229 324.585 323.54 322.708 323.54C319.939 326.689 319.224 328.362 316.454 331.118C313.774 333.873 305.823 342.829 302.696 346.273C305.912 340.565 312.523 332.889 316.454 327.772C320.028 322.851 322.798 318.619 326.193 310.648C329.32 303.365 333.251 296.083 326.818 297.461C322.083 298.445 315.829 306.318 312.166 313.994C304.393 322.359 300.909 326.492 294.655 335.251C289.205 338.105 282.147 343.124 276.607 345.978C267.048 348.438 260.079 341.254 260.257 335.546C261.24 330.429 266.422 327.87 272.497 325.705C278.215 323.048 284.023 320.391 289.741 317.734C294.208 315.667 296.71 313.108 300.015 307.991C301.802 305.137 300.462 299.823 298.05 300.315C297.871 300.315 291.081 303.562 284.916 305.531C281.342 306.711 278.841 310.451 274.016 313.01C268.924 315.864 265.707 316.75 260.525 319.21C256.237 321.178 248.196 329.445 243.193 336.826C240.959 340.073 237.922 341.943 234.705 343.714" fill="white"/>
<path fill-rule="evenodd" clip-rule="evenodd" d="M305.823 374.419C302.517 376.289 298.586 380.52 292.957 381.898C280.717 384.752 261.776 384.949 249.358 385.539C247.749 390.361 245.694 394.396 242.657 395.676C234.705 396.758 222.197 396.758 214.335 396.266C206.83 395.873 201.38 395.282 199.683 391.444C189.676 395.184 179.67 398.825 169.753 402.565C160.193 411.618 150.633 420.771 141.163 429.825L163.677 433.072L194.947 413.39C205.401 411.422 215.764 409.453 226.218 407.485C191.642 430.415 157.155 453.443 122.579 476.373C157.423 468.5 192.267 460.628 227.111 452.755C236.76 441.339 248.911 431.891 274.463 425.199C283.219 419.491 293.046 412.799 301.802 407.091C302.696 396.66 304.929 384.85 305.823 374.419Z" fill="white"/>
<path fill-rule="evenodd" clip-rule="evenodd" d="M468.964 319.505C489.959 294.902 508.275 283.486 531.951 280.14C536.329 281.813 540.974 287.029 546.335 286.143C539.902 289.883 535.525 292.639 533.023 295.493C530.075 299.134 525.518 300.905 520.157 301.889C524.089 302.677 528.02 304.35 534.095 298.248C547.229 285.258 558.218 286.537 571.619 288.505C577.695 289.391 584.485 293.918 590.56 294.902C601.907 296.772 615.398 297.362 626.476 296.181C624.689 298.15 622.902 300.413 621.562 302.873C613.343 307.302 600.924 310.057 591.543 310.746C601.639 311.632 614.415 308.089 620.043 306.318C619.239 309.073 619.061 312.124 620.133 315.175C621.384 308.877 622.277 302.381 628.084 297.756C630.765 295.591 635.321 293.623 640.771 291.851C637.197 292.245 633.624 292.639 630.407 294.016C632.462 289.293 637.019 285.061 642.022 280.731C643.005 285.651 642.915 290.474 642.647 295.394C640.414 298.543 635.946 301.299 632.283 304.94C629.603 307.499 629.514 310.353 630.943 312.419C635.857 314.781 640.771 317.242 645.685 319.603C641.843 323.343 634.428 326.787 629.067 326.591C625.315 326.394 623.438 325.607 620.669 320.489C619.865 323.934 621.92 326.394 625.315 328.362C622.456 330.724 619.418 331.708 615.666 332.102C613.968 332.299 612.717 331.806 611.466 330.035C610.394 331.314 612.181 334.07 612.985 334.66C596.635 339.581 579.392 346.568 562.685 349.717C551.964 351.686 541.064 352.375 533.023 344.01C528.824 339.679 524.893 331.61 521.319 330.724C525.25 334.956 528.02 339.876 529.717 344.797C522.748 339.975 515.69 338.105 508.721 336.924C493.89 334.464 481.74 326.197 468.964 319.505" fill="white"/>
<path fill-rule="evenodd" clip-rule="evenodd" d="M230.417 447.834C240.959 442.225 251.591 434.45 262.848 430.907C277.858 426.282 289.83 426.479 311.898 418.409C305.555 425.888 299.658 430.71 291.706 436.714C289.651 438.19 291.349 441.634 289.919 442.126C281.7 445.177 276.518 445.374 267.852 445.374C273.748 446.358 280.002 448.129 290.366 445.374C292.332 444.882 293.046 446.85 293.493 447.44C290.992 451.278 286.614 455.313 281.879 459.053C273.034 466.04 262.759 468.894 253.467 472.437C261.687 470.567 269.817 470.075 283.129 461.612C289.562 457.478 294.119 452.164 296.62 447.736C298.05 448.523 299.837 449.802 300.551 452.459C301.266 455.412 300.819 457.577 301.713 461.021C302.338 463.974 306.448 466.139 306.269 469.977C305.733 471.059 304.214 473.323 301.534 474.012C256.058 486.018 227.647 508.653 199.861 535.421L150.186 542.802L211.833 500.386L189.229 501.469L131.871 530.106L213.799 465.351L169.484 478.637L230.417 447.834" fill="white"/>
<path fill-rule="evenodd" clip-rule="evenodd" d="M240.513 501.272C261.866 490.151 283.397 480.408 306.001 475.685C337.897 490.348 363.092 507.964 384.087 527.548C370.954 532.96 357.82 540.833 344.776 550.478C360.501 541.916 373.992 535.814 385.249 532.173C389.269 533.944 392.664 536.109 395.345 538.668C367.916 548.706 341.56 571.833 315.561 594.468C327.444 588.465 340.13 580.1 352.013 576.95C336.199 585.217 317.348 605.49 297.692 628.617L306.001 600.372L266.69 609.525L341.739 534.732L299.569 537.487L238.1 553.824C234.437 554.808 306.627 509.833 306.627 509.833L268.477 515.049L221.482 538.668C233.544 527.056 245.694 515.541 257.756 503.929C252.038 503.043 246.32 502.157 240.513 501.272" fill="white"/>
<path fill-rule="evenodd" clip-rule="evenodd" d="M393.468 549.592C381.496 554.512 369.524 561.893 357.552 571.144C364.789 572.128 372.115 573.113 379.352 574.096C393.736 586.004 408.121 597.814 422.416 609.623C426.883 622.613 404.994 618.578 377.565 646.724C399.365 638.851 421.076 629.108 442.875 628.715C446.36 631.274 448.593 644.264 445.556 648.988C438.408 661.289 434.566 669.359 427.419 681.759C437.783 667.784 445.824 657.451 456.902 647.02C455.92 633.045 452.078 624.681 448.325 616.019C445.556 609.328 444.216 603.128 439.748 597.617C425.632 580.198 408.925 565.633 393.468 549.592" fill="white"/>
<path fill-rule="evenodd" clip-rule="evenodd" d="M137.5 643.674L262.402 572.817H233.99L137.5 643.674Z" fill="white"/>
<path fill-rule="evenodd" clip-rule="evenodd" d="M208.438 611.592L228.362 600.668L282.593 640.622L208.438 611.592Z" fill="white"/>
<path fill-rule="evenodd" clip-rule="evenodd" d="M110.964 448.326L104.264 466.729L131.067 445.866L110.964 448.326Z" fill="white"/>
<path fill-rule="evenodd" clip-rule="evenodd" d="M92.0235 502.453L57.1794 546.738L79.6941 536.109L93.0956 519.675L155.636 487.691L100.958 507.373L92.0235 502.453Z" fill="white"/>
<path fill-rule="evenodd" clip-rule="evenodd" d="M18.762 627.928L82.9107 597.519L92.6488 601.16L145.451 570.652L69.0623 631.569H47.977L0 661.978L47.1733 624.385L18.762 627.928Z" fill="white"/>
<path fill-rule="evenodd" clip-rule="evenodd" d="M368.81 658.337L345.312 662.864L349.333 668.178L307.073 704L368.81 658.337Z" fill="white"/>
<path fill-rule="evenodd" clip-rule="evenodd" d="M630.05 312.813C630.05 309.565 631.569 307.991 633.177 306.318C636.393 302.775 640.414 300.315 643.987 297.362C646.4 294.804 647.651 290.474 647.651 288.112C646.846 289.785 645.953 292.835 643.987 294.41C644.881 286.242 642.826 276.893 644.077 270.988C644.792 267.347 648.187 265.378 649.08 267.544C651.85 274.531 652.386 282.207 654.53 289.489C655.602 292.934 654.977 297.264 652.564 302.48C655.781 300.019 657.746 293.131 657.568 288.702C657.121 281.026 653.101 271.972 651.046 262.328C649.884 257.112 652.922 251.798 655.334 253.766C659.176 262.229 664.626 270.004 666.859 279.156C668.378 285.159 666.949 288.407 667.306 294.607C667.395 295.689 668.11 296.673 668.736 297.461C669.361 290.277 670.344 282.305 669.629 278.27C668.021 268.528 665.341 262.328 664.804 252.487C664.09 241.76 670.701 240.087 671.952 244.318C674.99 254.848 676.24 261.836 678.742 272.563C680.44 279.943 678.921 281.616 678.385 296.477C678.295 298.051 675.168 301.299 674.007 302.185C663.732 310.451 651.224 315.372 645.685 319.603C640.235 319.603 634.696 319.603 629.246 319.603C629.514 317.34 629.782 315.076 630.05 312.813" fill="white"/>
<path fill-rule="evenodd" clip-rule="evenodd" d="M680.529 273.448C683.299 268.724 687.498 263.607 692.322 261.147C697.147 256.521 702.061 252.487 707.243 252.093C710.816 251.896 712.514 255.045 709.297 258.49C704.384 263.804 698.934 268.724 694.645 274.629C690.803 279.845 688.838 286.439 684.996 291.654C683.656 293.426 681.333 294.016 679.546 295.197C679.814 288.112 680.797 285.061 681.065 279.943C681.154 277.778 680.708 275.613 680.529 273.448" fill="white"/>
<path fill-rule="evenodd" clip-rule="evenodd" d="M679.635 266.756C681.422 263.509 683.031 260.163 684.996 257.112C686.872 254.16 690.535 250.125 691.161 248.845C692.054 246.877 689.016 245.106 684.639 246.09C682.762 246.483 678.742 248.648 676.151 253.274C677.402 258.49 678.474 262.623 679.635 266.756Z" fill="white"/>
<path fill-rule="evenodd" clip-rule="evenodd" d="M676.687 181.236C684.103 181.236 690.178 174.544 690.178 166.278C690.178 158.11 684.103 151.418 676.687 151.418C669.182 151.418 663.107 158.11 663.107 166.278C663.107 174.544 669.182 181.236 676.687 181.236Z" fill="white"/>
<path fill-rule="evenodd" clip-rule="evenodd" d="M84.6974 394.79L95.2401 397.939L125.706 376.092L84.6974 394.79Z" fill="white"/>
<path fill-rule="evenodd" clip-rule="evenodd" d="M270.8 327.575C276.875 328.559 280.27 331.806 281.432 336.235C281.61 336.825 281.61 337.514 281.521 338.203L259.453 332.889L259.096 335.94L280.628 341.057C279.377 343.714 276.965 346.076 275.088 346.371C275.714 346.273 277.143 346.175 277.858 346.175C280.896 344.994 283.04 342.336 283.665 339.483L305.912 323.835L307.341 320.489L283.844 337.219C283.844 336.825 283.844 336.333 283.665 335.94C282.772 331.708 277.233 327.87 273.57 327.476C272.676 327.575 271.693 327.575 270.8 327.575" fill="white"/>
<path fill-rule="evenodd" clip-rule="evenodd" d="M303.053 303.464L318.42 307.105L319.581 305.235L303.678 301.397L303.232 302.283L303.053 303.464V303.464ZM298.496 313.896L306.091 310.648L313.953 311.238L314.668 309.959L304.572 309.369L301.713 307.302L301.802 311.042L298.496 313.896ZM326.104 316.356C331.196 317.143 341.56 316.257 349.422 314.191L328.337 309.762L329.409 307.499L353.8 312.813C354.157 312.715 354.425 312.518 354.783 312.419C370.597 305.629 389.716 294.312 393.647 287.324C393.647 288.21 393.647 288.997 393.647 289.883C390.163 295.788 371.133 307.696 354.872 314.289C345.759 318.029 332.536 318.915 324.942 318.422C325.299 317.734 325.746 317.045 326.104 316.356" fill="white"/>
</g>
<defs>
<clipPath id="clip0_102_4">
<rect width="711" height="704" fill="white"/>
</clipPath>
</defs>
</svg>
