<svg width="341" height="88" viewBox="0 0 341 88" fill="none" xmlns="http://www.w3.org/2000/svg">
<g filter="url(#filter0_d_102_35)">
<path d="M2 20C2 8.9543 10.9543 0 22 0H315C326.046 0 335 8.95431 335 20V59C335 70.0457 326.046 79 315 79H22C10.9543 79 2 70.0457 2 59V20Z" fill="url(#paint0_linear_102_35)" shape-rendering="crispEdges"/>
</g>
<path d="M119.838 45.3555C119.838 44.8633 119.762 44.4238 119.609 44.0371C119.469 43.6387 119.205 43.2812 118.818 42.9648C118.443 42.6367 117.91 42.3203 117.219 42.0156C116.539 41.6992 115.66 41.3711 114.582 41.0312C113.387 40.6562 112.273 40.2344 111.242 39.7656C110.211 39.2969 109.303 38.752 108.518 38.1309C107.744 37.5098 107.141 36.7949 106.707 35.9863C106.273 35.166 106.057 34.2168 106.057 33.1387C106.057 32.084 106.279 31.123 106.725 30.2559C107.182 29.3887 107.826 28.6445 108.658 28.0234C109.49 27.3906 110.469 26.9043 111.594 26.5645C112.73 26.2246 113.984 26.0547 115.355 26.0547C117.254 26.0547 118.895 26.4004 120.277 27.0918C121.672 27.7832 122.75 28.7207 123.512 29.9043C124.273 31.0879 124.654 32.418 124.654 33.8945H119.838C119.838 33.0977 119.668 32.3945 119.328 31.7852C119 31.1758 118.496 30.6953 117.816 30.3438C117.148 29.9922 116.305 29.8164 115.285 29.8164C114.301 29.8164 113.48 29.9629 112.824 30.2559C112.18 30.5488 111.693 30.9473 111.365 31.4512C111.049 31.9551 110.891 32.5176 110.891 33.1387C110.891 33.6074 111.002 34.0293 111.225 34.4043C111.447 34.7676 111.781 35.1133 112.227 35.4414C112.672 35.7578 113.223 36.0566 113.879 36.3379C114.547 36.6074 115.32 36.877 116.199 37.1465C117.605 37.5684 118.836 38.0371 119.891 38.5527C120.957 39.0684 121.842 39.6543 122.545 40.3105C123.26 40.9668 123.793 41.7051 124.145 42.5254C124.508 43.3457 124.689 44.2773 124.689 45.3203C124.689 46.4219 124.473 47.4062 124.039 48.2734C123.605 49.1406 122.984 49.8789 122.176 50.4883C121.367 51.0977 120.395 51.5605 119.258 51.877C118.133 52.1934 116.873 52.3516 115.479 52.3516C114.236 52.3516 113.006 52.1875 111.787 51.8594C110.58 51.5195 109.484 51.0156 108.5 50.3477C107.516 49.668 106.73 48.8125 106.145 47.7812C105.559 46.7383 105.266 45.5195 105.266 44.125H110.117C110.117 44.9336 110.246 45.625 110.504 46.1992C110.773 46.7617 111.148 47.2246 111.629 47.5879C112.121 47.9395 112.695 48.1973 113.352 48.3613C114.008 48.5254 114.717 48.6074 115.479 48.6074C116.463 48.6074 117.271 48.4727 117.904 48.2031C118.549 47.9219 119.029 47.5352 119.346 47.043C119.674 46.5508 119.838 45.9883 119.838 45.3555ZM133.566 26.4062V52H128.732V26.4062H133.566ZM159.354 26.4062V52H154.502L143.621 34.2461V52H138.787V26.4062H143.621L154.537 44.1777V26.4062H159.354ZM184.244 38.7637V48.7305C183.869 49.2109 183.277 49.7324 182.469 50.2949C181.672 50.8574 180.629 51.3438 179.34 51.7539C178.051 52.1523 176.469 52.3516 174.594 52.3516C172.965 52.3516 171.477 52.082 170.129 51.543C168.781 50.9922 167.621 50.1895 166.648 49.1348C165.676 48.0801 164.926 46.791 164.398 45.2676C163.871 43.7441 163.607 42.0039 163.607 40.0469V38.3594C163.607 36.4023 163.854 34.6621 164.346 33.1387C164.85 31.6152 165.564 30.3262 166.49 29.2715C167.428 28.2168 168.547 27.4141 169.848 26.8633C171.16 26.3125 172.625 26.0371 174.242 26.0371C176.41 26.0371 178.191 26.3945 179.586 27.1094C180.992 27.8242 182.07 28.8086 182.82 30.0625C183.57 31.3047 184.039 32.7344 184.227 34.3516H179.516C179.387 33.4609 179.129 32.6816 178.742 32.0137C178.355 31.334 177.805 30.8066 177.09 30.4316C176.387 30.0449 175.473 29.8516 174.348 29.8516C173.398 29.8516 172.561 30.0391 171.834 30.4141C171.107 30.7891 170.498 31.334 170.006 32.0488C169.514 32.7637 169.139 33.6484 168.881 34.7031C168.635 35.7578 168.512 36.9648 168.512 38.3242V40.0469C168.512 41.418 168.652 42.6367 168.934 43.7031C169.215 44.7578 169.619 45.6484 170.146 46.375C170.686 47.0898 171.348 47.6348 172.133 48.0098C172.93 48.373 173.832 48.5547 174.84 48.5547C175.754 48.5547 176.51 48.4785 177.107 48.3262C177.717 48.1621 178.203 47.9688 178.566 47.7461C178.93 47.5234 179.211 47.3066 179.41 47.0957V42.2969H174.33V38.7637H184.244ZM202.93 26.4062V52H198.096V26.4062H202.93ZM228.717 26.4062V52H223.865L212.984 34.2461V52H208.15V26.4062H212.984L223.9 44.1777V26.4062H228.717Z" fill="#EDEDED"/>
<defs>
<filter id="filter0_d_102_35" x="0" y="0" width="341" height="88" filterUnits="userSpaceOnUse" color-interpolation-filters="sRGB">
<feFlood flood-opacity="0" result="BackgroundImageFix"/>
<feColorMatrix in="SourceAlpha" type="matrix" values="0 0 0 0 0 0 0 0 0 0 0 0 0 0 0 0 0 0 127 0" result="hardAlpha"/>
<feOffset dx="2" dy="5"/>
<feGaussianBlur stdDeviation="2"/>
<feComposite in2="hardAlpha" operator="out"/>
<feColorMatrix type="matrix" values="0 0 0 0 0 0 0 0 0 0 0 0 0 0 0 0 0 0 0.25 0"/>
<feBlend mode="normal" in2="BackgroundImageFix" result="effect1_dropShadow_102_35"/>
<feBlend mode="normal" in="SourceGraphic" in2="effect1_dropShadow_102_35" result="shape"/>
</filter>
<linearGradient id="paint0_linear_102_35" x1="2" y1="46" x2="335" y2="40" gradientUnits="userSpaceOnUse">
<stop stop-color="#FA982F"/>
<stop offset="1" stop-color="#FF5E43"/>
<stop offset="1" stop-color="#C4C4C4" stop-opacity="0"/>
</linearGradient>
</defs>
</svg>
